<svg width="194" height="37" viewBox="0 0 194 37" fill="none" xmlns="http://www.w3.org/2000/svg">
<path d="M27.1797 19.0078V31.5C26.7578 32.125 26.0859 32.8281 25.1641 33.6094C24.2422 34.375 22.9688 35.0469 21.3438 35.625C19.7344 36.1875 17.6562 36.4688 15.1094 36.4688C13.0312 36.4688 11.1172 36.1094 9.36719 35.3906C7.63281 34.6562 6.125 33.5938 4.84375 32.2031C3.57812 30.7969 2.59375 29.0938 1.89062 27.0938C1.20312 25.0781 0.859375 22.7969 0.859375 20.25V17.6016C0.859375 15.0547 1.15625 12.7812 1.75 10.7812C2.35938 8.78125 3.25 7.08594 4.42188 5.69531C5.59375 4.28906 7.03125 3.22656 8.73438 2.50781C10.4375 1.77344 12.3906 1.40625 14.5938 1.40625C17.2031 1.40625 19.3828 1.85937 21.1328 2.76562C22.8984 3.65625 24.2734 4.89063 25.2578 6.46875C26.2578 8.04688 26.8984 9.84375 27.1797 11.8594H22.6562C22.4531 10.625 22.0469 9.5 21.4375 8.48438C20.8438 7.46875 19.9922 6.65625 18.8828 6.04688C17.7734 5.42187 16.3438 5.10938 14.5938 5.10938C13.0156 5.10938 11.6484 5.39844 10.4922 5.97656C9.33594 6.55469 8.38281 7.38281 7.63281 8.46094C6.88281 9.53906 6.32031 10.8438 5.94531 12.375C5.58594 13.9062 5.40625 15.6328 5.40625 17.5547V20.25C5.40625 22.2188 5.63281 23.9766 6.08594 25.5234C6.55469 27.0703 7.21875 28.3906 8.07812 29.4844C8.9375 30.5625 9.96094 31.3828 11.1484 31.9453C12.3516 32.5078 13.6797 32.7891 15.1328 32.7891C16.7422 32.7891 18.0469 32.6562 19.0469 32.3906C20.0469 32.1094 20.8281 31.7812 21.3906 31.4062C21.9531 31.0156 22.3828 30.6484 22.6797 30.3047V22.6641H14.7812V19.0078H27.1797ZM38.7344 0V36H34.375V0H38.7344ZM61.2109 30.1406V10.6406H65.5703V36H61.4219L61.2109 30.1406ZM62.0312 24.7969L63.8359 24.75C63.8359 26.4375 63.6562 28 63.2969 29.4375C62.9531 30.8594 62.3906 32.0938 61.6094 33.1406C60.8281 34.1875 59.8047 35.0078 58.5391 35.6016C57.2734 36.1797 55.7344 36.4688 53.9219 36.4688C52.6875 36.4688 51.5547 36.2891 50.5234 35.9297C49.5078 35.5703 48.6328 35.0156 47.8984 34.2656C47.1641 33.5156 46.5938 32.5391 46.1875 31.3359C45.7969 30.1328 45.6016 28.6875 45.6016 27V10.6406H49.9375V27.0469C49.9375 28.1875 50.0625 29.1328 50.3125 29.8828C50.5781 30.6172 50.9297 31.2031 51.3672 31.6406C51.8203 32.0625 52.3203 32.3594 52.8672 32.5312C53.4297 32.7031 54.0078 32.7891 54.6016 32.7891C56.4453 32.7891 57.9062 32.4375 58.9844 31.7344C60.0625 31.0156 60.8359 30.0547 61.3047 28.8516C61.7891 27.6328 62.0312 26.2812 62.0312 24.7969ZM76.5156 14.625V36H72.1797V10.6406H76.3984L76.5156 14.625ZM84.4375 10.5L84.4141 14.5312C84.0547 14.4531 83.7109 14.4062 83.3828 14.3906C83.0703 14.3594 82.7109 14.3438 82.3047 14.3438C81.3047 14.3438 80.4219 14.5 79.6562 14.8125C78.8906 15.125 78.2422 15.5625 77.7109 16.125C77.1797 16.6875 76.7578 17.3594 76.4453 18.1406C76.1484 18.9062 75.9531 19.75 75.8594 20.6719L74.6406 21.375C74.6406 19.8438 74.7891 18.4062 75.0859 17.0625C75.3984 15.7188 75.875 14.5312 76.5156 13.5C77.1562 12.4531 77.9688 11.6406 78.9531 11.0625C79.9531 10.4688 81.1406 10.1719 82.5156 10.1719C82.8281 10.1719 83.1875 10.2109 83.5938 10.2891C84 10.3516 84.2812 10.4219 84.4375 10.5ZM114.32 19.0078V31.5C113.898 32.125 113.227 32.8281 112.305 33.6094C111.383 34.375 110.109 35.0469 108.484 35.625C106.875 36.1875 104.797 36.4688 102.25 36.4688C100.172 36.4688 98.2578 36.1094 96.5078 35.3906C94.7734 34.6562 93.2656 33.5938 91.9844 32.2031C90.7188 30.7969 89.7344 29.0938 89.0312 27.0938C88.3438 25.0781 88 22.7969 88 20.25V17.6016C88 15.0547 88.2969 12.7812 88.8906 10.7812C89.5 8.78125 90.3906 7.08594 91.5625 5.69531C92.7344 4.28906 94.1719 3.22656 95.875 2.50781C97.5781 1.77344 99.5312 1.40625 101.734 1.40625C104.344 1.40625 106.523 1.85937 108.273 2.76562C110.039 3.65625 111.414 4.89063 112.398 6.46875C113.398 8.04688 114.039 9.84375 114.32 11.8594H109.797C109.594 10.625 109.188 9.5 108.578 8.48438C107.984 7.46875 107.133 6.65625 106.023 6.04688C104.914 5.42187 103.484 5.10938 101.734 5.10938C100.156 5.10938 98.7891 5.39844 97.6328 5.97656C96.4766 6.55469 95.5234 7.38281 94.7734 8.46094C94.0234 9.53906 93.4609 10.8438 93.0859 12.375C92.7266 13.9062 92.5469 15.6328 92.5469 17.5547V20.25C92.5469 22.2188 92.7734 23.9766 93.2266 25.5234C93.6953 27.0703 94.3594 28.3906 95.2188 29.4844C96.0781 30.5625 97.1016 31.3828 98.2891 31.9453C99.4922 32.5078 100.82 32.7891 102.273 32.7891C103.883 32.7891 105.188 32.6562 106.188 32.3906C107.188 32.1094 107.969 31.7812 108.531 31.4062C109.094 31.0156 109.523 30.6484 109.82 30.3047V22.6641H101.922V19.0078H114.32ZM131.688 36.4688C129.922 36.4688 128.32 36.1719 126.883 35.5781C125.461 34.9688 124.234 34.1172 123.203 33.0234C122.188 31.9297 121.406 30.6328 120.859 29.1328C120.312 27.6328 120.039 25.9922 120.039 24.2109V23.2266C120.039 21.1641 120.344 19.3281 120.953 17.7188C121.562 16.0938 122.391 14.7188 123.438 13.5938C124.484 12.4688 125.672 11.6172 127 11.0391C128.328 10.4609 129.703 10.1719 131.125 10.1719C132.938 10.1719 134.5 10.4844 135.812 11.1094C137.141 11.7344 138.227 12.6094 139.07 13.7344C139.914 14.8438 140.539 16.1562 140.945 17.6719C141.352 19.1719 141.555 20.8125 141.555 22.5938V24.5391H122.617V21H137.219V20.6719C137.156 19.5469 136.922 18.4531 136.516 17.3906C136.125 16.3281 135.5 15.4531 134.641 14.7656C133.781 14.0781 132.609 13.7344 131.125 13.7344C130.141 13.7344 129.234 13.9453 128.406 14.3672C127.578 14.7734 126.867 15.3828 126.273 16.1953C125.68 17.0078 125.219 18 124.891 19.1719C124.562 20.3438 124.398 21.6953 124.398 23.2266V24.2109C124.398 25.4141 124.562 26.5469 124.891 27.6094C125.234 28.6562 125.727 29.5781 126.367 30.375C127.023 31.1719 127.812 31.7969 128.734 32.25C129.672 32.7031 130.734 32.9297 131.922 32.9297C133.453 32.9297 134.75 32.6172 135.812 31.9922C136.875 31.3672 137.805 30.5312 138.602 29.4844L141.227 31.5703C140.68 32.3984 139.984 33.1875 139.141 33.9375C138.297 34.6875 137.258 35.2969 136.023 35.7656C134.805 36.2344 133.359 36.4688 131.688 36.4688ZM157.141 36.4688C155.375 36.4688 153.773 36.1719 152.336 35.5781C150.914 34.9688 149.688 34.1172 148.656 33.0234C147.641 31.9297 146.859 30.6328 146.312 29.1328C145.766 27.6328 145.492 25.9922 145.492 24.2109V23.2266C145.492 21.1641 145.797 19.3281 146.406 17.7188C147.016 16.0938 147.844 14.7188 148.891 13.5938C149.938 12.4688 151.125 11.6172 152.453 11.0391C153.781 10.4609 155.156 10.1719 156.578 10.1719C158.391 10.1719 159.953 10.4844 161.266 11.1094C162.594 11.7344 163.68 12.6094 164.523 13.7344C165.367 14.8438 165.992 16.1562 166.398 17.6719C166.805 19.1719 167.008 20.8125 167.008 22.5938V24.5391H148.07V21H162.672V20.6719C162.609 19.5469 162.375 18.4531 161.969 17.3906C161.578 16.3281 160.953 15.4531 160.094 14.7656C159.234 14.0781 158.062 13.7344 156.578 13.7344C155.594 13.7344 154.688 13.9453 153.859 14.3672C153.031 14.7734 152.32 15.3828 151.727 16.1953C151.133 17.0078 150.672 18 150.344 19.1719C150.016 20.3438 149.852 21.6953 149.852 23.2266V24.2109C149.852 25.4141 150.016 26.5469 150.344 27.6094C150.688 28.6562 151.18 29.5781 151.82 30.375C152.477 31.1719 153.266 31.7969 154.188 32.25C155.125 32.7031 156.188 32.9297 157.375 32.9297C158.906 32.9297 160.203 32.6172 161.266 31.9922C162.328 31.3672 163.258 30.5312 164.055 29.4844L166.68 31.5703C166.133 32.3984 165.438 33.1875 164.594 33.9375C163.75 34.6875 162.711 35.2969 161.477 35.7656C160.258 36.2344 158.812 36.4688 157.141 36.4688ZM176.43 0V36H172.07V0H176.43ZM191.922 10.6406L180.859 22.4766L174.672 28.8984L174.32 24.2812L178.75 18.9844L186.625 10.6406H191.922ZM187.961 36L178.914 23.9062L181.164 20.0391L193.07 36H187.961Z" fill="white"/>
</svg>
